<svg xmlns="http://www.w3.org/2000/svg" version="1.1" xmlns:xlink="http://www.w3.org/1999/xlink" width="1000" height="1000"><g clip-path="url(#SvgjsClipPath1093)"><rect width="1000" height="1000" fill="#101010"></rect><g transform="matrix(1.2578616352201257,0,0,1.2578616352201257,100,254.7169811320755)"><svg xmlns="http://www.w3.org/2000/svg" version="1.1" xmlns:xlink="http://www.w3.org/1999/xlink" width="636" height="390"><svg width="636" height="390" viewBox="0 0 636 390" fill="none" xmlns="http://www.w3.org/2000/svg">
<path d="M202.125 274.75H539.625L509.712 349.533C500.6 372.313 478.537 387.25 454.003 387.25H157.125L202.125 274.75Z" fill="white"></path>
<path d="M44.625 274.75H179.625L134.625 387.25H7.01017C3.47285 387.25 1.05407 383.677 2.3678 380.393L44.625 274.75Z" fill="#C86250"></path>
<path d="M93 139.75H467.625L422.625 252.25H48L93 139.75Z" fill="#F5E645"></path>
<path d="M126.288 42.4665C135.4 19.687 157.463 4.75 181.997 4.75H628.99C632.527 4.75 634.946 8.32263 633.632 11.607L591.375 117.25H96.375L126.288 42.4665Z" fill="#38C874"></path>
</svg></svg></g></g><defs><clipPath id="SvgjsClipPath1093"><rect width="1000" height="1000" x="0" y="0" rx="350" ry="350"></rect></clipPath></defs></svg>