<svg xmlns="http://www.w3.org/2000/svg" version="1.1" xmlns:xlink="http://www.w3.org/1999/xlink" xmlns:svgjs="http://svgjs.dev/svgjs" width="1000" height="1000"><style>
    #light-icon {
      display: inline;
    }
    #dark-icon {
      display: none;
    }

    @media (prefers-color-scheme: dark) {
      #light-icon {
        display: none;
      }
      #dark-icon {
        display: inline;
      }
    }
  </style><g id="light-icon"><svg xmlns="http://www.w3.org/2000/svg" version="1.1" xmlns:xlink="http://www.w3.org/1999/xlink" xmlns:svgjs="http://svgjs.dev/svgjs" width="1000" height="1000"><g><g transform="matrix(0.3472222222222222,0,0,0.3472222222222222,0,0)"><svg xmlns="http://www.w3.org/2000/svg" version="1.1" xmlns:xlink="http://www.w3.org/1999/xlink" xmlns:svgjs="http://svgjs.dev/svgjs" width="2880" height="2880"><svg viewBox="0 0 2880 2880" xmlns="http://www.w3.org/2000/svg">
	<g transform="matrix(1.3333333,0,0,-1.3333333,0,2880)">
		<g transform="translate(1923.9874,1011.2084)">
			<path d="m 0,0 c -11.78,-134.262 -117.799,-266.846 -336.566,-266.846 -360.128,0 -403.88,114.124 -403.88,335.656 0,185.378 181.744,326.724 336.566,335.655 C -200.257,416.214 19.435,221.534 0,0" fill="#cc2435"></path>
		</g>

		<g transform="translate(1516.0741,1501.2041)">
			<path d="m 0,0 c -36.126,9.67 -74.097,14.826 -113.272,14.826 -296.645,0 -522.859,-383.837 -456.114,-601.869 63.787,-208.374 214.821,-271.934 456.114,-271.934 40.839,0 74.73,3.585 112.225,14.064 -72.564,-45.084 -151.494,-69.37 -241.188,-69.37 -305.171,0 -500.118,172.529 -500.118,436.52 0,263.99 184.576,533.3 522.24,533.3 C -139.242,55.537 -64.617,35.452 0,0" fill="#ffa200"></path>
		</g>

		<g transform="translate(1273.8395,586.9212)">
			<path d="m 0,0 c -305.171,0 -500.119,172.529 -500.119,436.52 0,263.99 184.577,533.3 522.241,533.3 80.871,0 155.495,-20.085 220.113,-55.537 -129.271,175.083 -337.087,288.636 -571.426,288.636 -392.033,0 -709.838,-317.806 -709.838,-709.839 0,-392.036 317.805,-709.841 709.838,-709.841 232.801,0 439.421,112.075 568.864,285.206 C 167.525,23.961 89.072,0 0,0" fill="#026846"></path>
		</g>
	</g>
</svg></svg></g></g></svg></g><g id="dark-icon"><svg xmlns="http://www.w3.org/2000/svg" version="1.1" xmlns:xlink="http://www.w3.org/1999/xlink" xmlns:svgjs="http://svgjs.dev/svgjs" width="1000" height="1000"><g clip-path="url(#SvgjsClipPath1706)"><rect width="1000" height="1000" fill="#ffffff"></rect><g transform="matrix(0.3125,0,0,0.3125,50,50)"><svg xmlns="http://www.w3.org/2000/svg" version="1.1" xmlns:xlink="http://www.w3.org/1999/xlink" xmlns:svgjs="http://svgjs.dev/svgjs" width="2880" height="2880"><svg viewBox="0 0 2880 2880" xmlns="http://www.w3.org/2000/svg">
	<g transform="matrix(1.3333333,0,0,-1.3333333,0,2880)">
		<g transform="translate(1923.9874,1011.2084)">
			<path d="m 0,0 c -11.78,-134.262 -117.799,-266.846 -336.566,-266.846 -360.128,0 -403.88,114.124 -403.88,335.656 0,185.378 181.744,326.724 336.566,335.655 C -200.257,416.214 19.435,221.534 0,0" fill="#cc2435"></path>
		</g>

		<g transform="translate(1516.0741,1501.2041)">
			<path d="m 0,0 c -36.126,9.67 -74.097,14.826 -113.272,14.826 -296.645,0 -522.859,-383.837 -456.114,-601.869 63.787,-208.374 214.821,-271.934 456.114,-271.934 40.839,0 74.73,3.585 112.225,14.064 -72.564,-45.084 -151.494,-69.37 -241.188,-69.37 -305.171,0 -500.118,172.529 -500.118,436.52 0,263.99 184.576,533.3 522.24,533.3 C -139.242,55.537 -64.617,35.452 0,0" fill="#ffa200"></path>
		</g>

		<g transform="translate(1273.8395,586.9212)">
			<path d="m 0,0 c -305.171,0 -500.119,172.529 -500.119,436.52 0,263.99 184.577,533.3 522.241,533.3 80.871,0 155.495,-20.085 220.113,-55.537 -129.271,175.083 -337.087,288.636 -571.426,288.636 -392.033,0 -709.838,-317.806 -709.838,-709.839 0,-392.036 317.805,-709.841 709.838,-709.841 232.801,0 439.421,112.075 568.864,285.206 C 167.525,23.961 89.072,0 0,0" fill="#026846"></path>
		</g>
	</g>
</svg></svg></g></g><defs><clipPath id="SvgjsClipPath1706"><rect width="1000" height="1000" x="0" y="0" rx="400" ry="400"></rect></clipPath></defs></svg></g></svg>