<svg xmlns="http://www.w3.org/2000/svg" version="1.1" xmlns:xlink="http://www.w3.org/1999/xlink" xmlns:svgjs="http://svgjs.dev/svgjs" width="742" height="742"><svg width="742" height="742" viewBox="0 0 742 742" fill="none" xmlns="http://www.w3.org/2000/svg">
<rect width="742" height="742" rx="120" fill="#222222"></rect>
<mask id="SvgjsMask1001" style="mask-type:alpha" maskUnits="userSpaceOnUse" x="0" y="0" width="742" height="742">
<rect width="742" height="742" rx="120" fill="white"></rect>
</mask>
<g mask="url(#mask0_654_66)">
<path d="M203.625 484.75H691.125L641.212 609.534C632.1 632.313 610.037 647.25 585.503 647.25H138.625L203.625 484.75Z" fill="white"></path>
<path d="M-23.875 484.75H171.125L106.125 647.25H-81.4898C-85.0271 647.25 -87.4459 643.677 -86.1322 640.393L-23.875 484.75Z" fill="#C86250"></path>
<path d="M46 289.75H587.125L522.125 452.25H-19L46 289.75Z" fill="#F5E645"></path>
<path d="M100.788 132.467C109.9 109.687 131.963 94.75 156.497 94.75H823.49C827.027 94.75 829.446 98.3226 828.132 101.607L765.875 257.25H50.875L100.788 132.467Z" fill="#38C874"></path>
</g></svg><style>@media (prefers-color-scheme: light) { :root { filter: none; } }
@media (prefers-color-scheme: dark) { :root { filter: none; } }
</style></svg>