<svg width="2376" height="410" viewBox="0 0 2376 410" fill="none" xmlns="http://www.w3.org/2000/svg">
<path d="M218.407 272.294H487.419L466.635 324.276C457.525 347.059 435.46 362 410.923 362H182.539L218.407 272.294Z" fill="black"/>
<path d="M92.8683 272.294H200.473L164.605 362H64.3841C60.8471 362 58.4283 358.428 59.7415 355.144L92.8683 272.294Z" fill="#C94C36"/>
<path d="M131.427 164.647H430.03L394.162 254.353H95.5584L131.427 164.647Z" fill="#F5E000"/>
<path d="M154.901 94.7241C164.011 71.9407 186.076 57 210.613 57H557.152C560.689 57 563.108 60.5721 561.794 63.8563L528.668 146.706H134.117L154.901 94.7241Z" fill="#22AA5B"/>
<path d="M758.289 130.539C778.471 130.539 795.854 134.445 810.438 142.258C825.021 149.94 836.284 161.138 844.227 175.852C852.169 190.565 856.141 208.534 856.141 229.758V258.664H715.32C715.971 275.461 720.984 288.677 730.359 298.312C739.865 307.818 753.016 312.57 769.812 312.57C783.745 312.57 796.505 311.138 808.094 308.273C819.682 305.409 831.596 301.112 843.836 295.383V341.477C833.029 346.815 821.701 350.721 809.852 353.195C798.133 355.669 783.875 356.906 767.078 356.906C745.203 356.906 725.802 352.87 708.875 344.797C692.078 336.724 678.862 324.419 669.227 307.883C659.721 291.346 654.969 270.513 654.969 245.383C654.969 219.862 659.266 198.638 667.859 181.711C676.583 164.654 688.693 151.893 704.188 143.43C719.682 134.836 737.716 130.539 758.289 130.539ZM758.68 172.922C747.091 172.922 737.456 176.633 729.773 184.055C722.221 191.477 717.859 203.13 716.688 219.016H800.281C800.151 210.161 798.523 202.284 795.398 195.383C792.404 188.482 787.846 183.013 781.727 178.977C775.737 174.94 768.055 172.922 758.68 172.922ZM1024.6 130.539C1047.91 130.539 1066.66 136.919 1080.85 149.68C1095.04 162.31 1102.14 182.622 1102.14 210.617V353H1042.57V225.461C1042.57 209.836 1039.71 198.052 1033.98 190.109C1028.38 182.167 1019.52 178.195 1007.41 178.195C989.185 178.195 976.75 184.38 970.109 196.75C963.469 209.12 960.148 226.958 960.148 250.266V353H900.578V134.641H946.086L954.094 162.57H957.414C962.102 155.018 967.896 148.898 974.797 144.211C981.828 139.523 989.576 136.073 998.039 133.859C1006.63 131.646 1015.49 130.539 1024.6 130.539ZM1228.61 356.906C1204.26 356.906 1184.4 347.401 1169.04 328.391C1153.8 309.25 1146.19 281.19 1146.19 244.211C1146.19 206.841 1153.93 178.586 1169.43 159.445C1184.92 140.174 1205.17 130.539 1230.17 130.539C1240.59 130.539 1249.77 131.971 1257.71 134.836C1265.65 137.701 1272.49 141.542 1278.22 146.359C1284.08 151.177 1289.03 156.581 1293.06 162.57H1295.02C1294.23 158.404 1293.26 152.284 1292.09 144.211C1291.04 136.008 1290.52 127.609 1290.52 119.016V49.0938H1350.29V353H1304.59L1293.06 324.68H1290.52C1286.75 330.669 1281.99 336.138 1276.27 341.086C1270.67 345.904 1263.96 349.745 1256.15 352.609C1248.34 355.474 1239.16 356.906 1228.61 356.906ZM1249.51 309.445C1265.78 309.445 1277.24 304.628 1283.88 294.992C1290.65 285.227 1294.23 270.578 1294.62 251.047V244.602C1294.62 223.378 1291.37 207.167 1284.86 195.969C1278.35 184.641 1266.24 178.977 1248.53 178.977C1235.38 178.977 1225.09 184.641 1217.67 195.969C1210.25 207.297 1206.54 223.638 1206.54 244.992C1206.54 266.346 1210.25 282.427 1217.67 293.234C1225.22 304.042 1235.84 309.445 1249.51 309.445ZM1529.3 179.367H1477.73V353H1418.16V179.367H1385.35V150.656L1418.16 134.641V118.625C1418.16 100.005 1421.29 85.5521 1427.54 75.2656C1433.92 64.849 1442.84 57.5573 1454.3 53.3906C1465.89 49.0938 1479.56 46.9453 1495.31 46.9453C1506.9 46.9453 1517.45 47.9219 1526.95 49.875C1536.46 51.6979 1544.21 53.7812 1550.2 56.125L1534.96 99.875C1530.4 98.4427 1525.46 97.1406 1520.12 95.9688C1514.78 94.7969 1508.66 94.2109 1501.76 94.2109C1493.42 94.2109 1487.3 96.75 1483.4 101.828C1479.62 106.776 1477.73 113.156 1477.73 120.969V134.641H1529.3V179.367ZM1758.11 243.43C1758.11 261.659 1755.64 277.805 1750.69 291.867C1745.87 305.93 1738.77 317.844 1729.4 327.609C1720.15 337.245 1708.96 344.536 1695.8 349.484C1682.78 354.432 1668.07 356.906 1651.66 356.906C1636.3 356.906 1622.17 354.432 1609.28 349.484C1596.52 344.536 1585.39 337.245 1575.88 327.609C1566.51 317.844 1559.22 305.93 1554.01 291.867C1548.93 277.805 1546.39 261.659 1546.39 243.43C1546.39 219.211 1550.69 198.703 1559.28 181.906C1567.88 165.109 1580.11 152.349 1596 143.625C1611.89 134.901 1630.83 130.539 1652.84 130.539C1673.28 130.539 1691.38 134.901 1707.13 143.625C1723.02 152.349 1735.45 165.109 1744.44 181.906C1753.55 198.703 1758.11 219.211 1758.11 243.43ZM1607.13 243.43C1607.13 257.753 1608.7 269.797 1611.82 279.562C1614.95 289.328 1619.83 296.685 1626.47 301.633C1633.11 306.581 1641.77 309.055 1652.45 309.055C1662.99 309.055 1671.52 306.581 1678.03 301.633C1684.67 296.685 1689.49 289.328 1692.48 279.562C1695.61 269.797 1697.17 257.753 1697.17 243.43C1697.17 228.977 1695.61 216.997 1692.48 207.492C1689.49 197.857 1684.67 190.63 1678.03 185.812C1671.39 180.995 1662.73 178.586 1652.05 178.586C1636.3 178.586 1624.84 183.99 1617.68 194.797C1610.65 205.604 1607.13 221.815 1607.13 243.43ZM1925.2 130.539C1928.2 130.539 1931.65 130.734 1935.55 131.125C1939.59 131.385 1942.85 131.776 1945.32 132.297L1940.83 188.156C1938.88 187.505 1936.08 187.049 1932.43 186.789C1928.91 186.398 1925.85 186.203 1923.25 186.203C1915.57 186.203 1908.08 187.18 1900.79 189.133C1893.63 191.086 1887.18 194.276 1881.45 198.703C1875.72 203 1871.17 208.729 1867.78 215.891C1864.53 222.922 1862.9 231.581 1862.9 241.867V353H1803.33V134.641H1848.45L1857.23 171.359H1860.16C1864.46 163.938 1869.8 157.167 1876.18 151.047C1882.69 144.797 1890.05 139.849 1898.25 136.203C1906.58 132.427 1915.57 130.539 1925.2 130.539ZM2237.41 130.539C2262.15 130.539 2280.84 136.919 2293.47 149.68C2306.23 162.31 2312.61 182.622 2312.61 210.617V353H2252.84V225.461C2252.84 209.836 2250.17 198.052 2244.84 190.109C2239.5 182.167 2231.23 178.195 2220.03 178.195C2204.28 178.195 2193.08 183.859 2186.44 195.188C2179.8 206.385 2176.48 222.466 2176.48 243.43V353H2116.91V225.461C2116.91 215.044 2115.73 206.32 2113.39 199.289C2111.05 192.258 2107.47 186.984 2102.65 183.469C2097.83 179.953 2091.65 178.195 2084.09 178.195C2073.03 178.195 2064.3 180.995 2057.92 186.594C2051.67 192.062 2047.18 200.201 2044.45 211.008C2041.84 221.685 2040.54 234.771 2040.54 250.266V353H1980.97V134.641H2026.48L2034.48 162.57H2037.8C2042.23 155.018 2047.77 148.898 2054.41 144.211C2061.18 139.523 2068.6 136.073 2076.67 133.859C2084.74 131.646 2092.95 130.539 2101.28 130.539C2117.3 130.539 2130.84 133.143 2141.91 138.352C2153.1 143.56 2161.7 151.633 2167.69 162.57H2172.96C2179.47 151.372 2188.65 143.234 2200.5 138.156C2212.48 133.078 2224.78 130.539 2237.41 130.539Z" fill="black"/>
</svg>
